<svg width="12" height="12" viewBox="0 0 22 22" xmlns="http://www.w3.org/2000/svg">
<path d="M10.7113 0.183898L9.72864 1.11565C9.48297 1.36085 9.48297 1.75316 9.72864 1.94932L17.3445 9.55045H0.589615C0.245673 9.55045 0 9.84469 0 10.1389V11.512C0 11.8553 0.245673 12.1005 0.589615 12.1005H17.3445L9.72864 19.7507C9.48297 19.9468 9.48297 20.3392 9.72864 20.5844L10.7113 21.5161C10.9079 21.7613 11.3009 21.7613 11.5466 21.5161L21.8157 11.2668C22.0614 11.0216 22.0614 10.6784 21.8157 10.4332L11.5466 0.183898C11.3009 -0.0612994 10.9079 -0.0612994 10.7113 0.183898Z"/>
</svg>
