<svg width="16" height="16" viewBox="0 0 16 16" fill="none" xmlns="http://www.w3.org/2000/svg">
<path d="M4.64592 4.64599C4.69236 4.59943 4.74754 4.56249 4.80828 4.53728C4.86903 4.51207 4.93415 4.4991 4.99992 4.4991C5.06568 4.4991 5.13081 4.51207 5.19155 4.53728C5.2523 4.56249 5.30747 4.59943 5.35392 4.64599L7.99992 7.29299L10.6459 4.64599C10.6924 4.59951 10.7476 4.56263 10.8083 4.53747C10.8691 4.51231 10.9342 4.49936 10.9999 4.49936C11.0657 4.49936 11.1308 4.51231 11.1915 4.53747C11.2522 4.56263 11.3074 4.59951 11.3539 4.64599C11.4004 4.69248 11.4373 4.74767 11.4624 4.80841C11.4876 4.86915 11.5005 4.93425 11.5005 4.99999C11.5005 5.06574 11.4876 5.13084 11.4624 5.19158C11.4373 5.25232 11.4004 5.30751 11.3539 5.35399L8.70692 7.99999L11.3539 10.646C11.4004 10.6925 11.4373 10.7477 11.4624 10.8084C11.4876 10.8691 11.5005 10.9342 11.5005 11C11.5005 11.0657 11.4876 11.1308 11.4624 11.1916C11.4373 11.2523 11.4004 11.3075 11.3539 11.354C11.3074 11.4005 11.2522 11.4374 11.1915 11.4625C11.1308 11.4877 11.0657 11.5006 10.9999 11.5006C10.9342 11.5006 10.8691 11.4877 10.8083 11.4625C10.7476 11.4374 10.6924 11.4005 10.6459 11.354L7.99992 8.70699L5.35392 11.354C5.30743 11.4005 5.25224 11.4374 5.1915 11.4625C5.13076 11.4877 5.06566 11.5006 4.99992 11.5006C4.93417 11.5006 4.86907 11.4877 4.80833 11.4625C4.74759 11.4374 4.6924 11.4005 4.64592 11.354C4.59943 11.3075 4.56255 11.2523 4.53739 11.1916C4.51223 11.1308 4.49929 11.0657 4.49929 11C4.49929 10.9342 4.51223 10.8691 4.53739 10.8084C4.56255 10.7477 4.59943 10.6925 4.64592 10.646L7.29292 7.99999L4.64592 5.35399C4.59935 5.30755 4.56241 5.25237 4.5372 5.19163C4.512 5.13088 4.49902 5.06576 4.49902 4.99999C4.49902 4.93423 4.512 4.8691 4.5372 4.80836C4.56241 4.74761 4.59935 4.69244 4.64592 4.64599Z" fill="none"/>
</svg>
