<svg width="100" height="110" viewBox="0 0 100 110" fill="none" xmlns="http://www.w3.org/2000/svg">
<path d="M0.5 22V99C0.5 101.917 1.65892 104.715 3.72182 106.778C5.78473 108.841 8.58262 110 11.5 110H88.5C91.4174 110 94.2153 108.841 96.2782 106.778C98.3411 104.715 99.5 101.917 99.5 99V22C99.5 19.0826 98.3411 16.2847 96.2782 14.2218C94.2153 12.1589 91.4174 11 88.5 11H77.5V0H66.5V11H33.5V0H22.5V11H11.5C8.58262 11 5.78473 12.1589 3.72182 14.2218C1.65892 16.2847 0.5 19.0826 0.5 22ZM88.5 99H11.5V33H88.5V99Z" fill="#221819"/>
</svg>
