<svg width="19" height="20" viewBox="0 0 19 20" fill="none" xmlns="http://www.w3.org/2000/svg">
<path d="M16.6875 1.875H14.5312V1.15625C14.5312 0.965626 14.4555 0.782809 14.3207 0.648017C14.1859 0.513225 14.0031 0.4375 13.8125 0.4375C13.6219 0.4375 13.4391 0.513225 13.3043 0.648017C13.1695 0.782809 13.0938 0.965626 13.0938 1.15625V1.875H5.90625V1.15625C5.90625 0.965626 5.83052 0.782809 5.69573 0.648017C5.56094 0.513225 5.37812 0.4375 5.1875 0.4375C4.99688 0.4375 4.81406 0.513225 4.67927 0.648017C4.54448 0.782809 4.46875 0.965626 4.46875 1.15625V1.875H2.3125C1.93125 1.875 1.56562 2.02645 1.29603 2.29603C1.02645 2.56562 0.875 2.93125 0.875 3.3125V17.6875C0.875 18.0687 1.02645 18.4344 1.29603 18.704C1.56562 18.9735 1.93125 19.125 2.3125 19.125H16.6875C17.0687 19.125 17.4344 18.9735 17.704 18.704C17.9735 18.4344 18.125 18.0687 18.125 17.6875V3.3125C18.125 2.93125 17.9735 2.56562 17.704 2.29603C17.4344 2.02645 17.0687 1.875 16.6875 1.875ZM4.46875 3.3125V4.03125C4.46875 4.22187 4.54448 4.40469 4.67927 4.53948C4.81406 4.67427 4.99688 4.75 5.1875 4.75C5.37812 4.75 5.56094 4.67427 5.69573 4.53948C5.83052 4.40469 5.90625 4.22187 5.90625 4.03125V3.3125H13.0938V4.03125C13.0938 4.22187 13.1695 4.40469 13.3043 4.53948C13.4391 4.67427 13.6219 4.75 13.8125 4.75C14.0031 4.75 14.1859 4.67427 14.3207 4.53948C14.4555 4.40469 14.5312 4.22187 14.5312 4.03125V3.3125H16.6875V6.1875H2.3125V3.3125H4.46875ZM16.6875 17.6875H2.3125V7.625H16.6875V17.6875ZM8.0625 9.78125V15.5312C8.0625 15.7219 7.98677 15.9047 7.85198 16.0395C7.71719 16.1743 7.53437 16.25 7.34375 16.25C7.15313 16.25 6.97031 16.1743 6.83552 16.0395C6.70073 15.9047 6.625 15.7219 6.625 15.5312V10.9438L6.22789 11.1433C6.05728 11.2286 5.85977 11.2426 5.67882 11.1823C5.49786 11.122 5.34827 10.9922 5.26297 10.8216C5.17766 10.651 5.16363 10.4535 5.22395 10.2726C5.28427 10.0916 5.414 9.94202 5.58461 9.85672L7.02211 9.13797C7.13173 9.08311 7.25356 9.05721 7.37601 9.06271C7.49847 9.06821 7.61748 9.10494 7.72174 9.1694C7.826 9.23387 7.91204 9.32393 7.97168 9.43102C8.03132 9.53811 8.06259 9.65867 8.0625 9.78125ZM13.3777 12.517L11.6562 14.8125H13.0938C13.2844 14.8125 13.4672 14.8882 13.602 15.023C13.7368 15.1578 13.8125 15.3406 13.8125 15.5312C13.8125 15.7219 13.7368 15.9047 13.602 16.0395C13.4672 16.1743 13.2844 16.25 13.0938 16.25H10.2188C10.0853 16.25 9.95443 16.2128 9.84088 16.1427C9.72733 16.0725 9.63558 15.9721 9.57588 15.8527C9.51619 15.7333 9.49092 15.5996 9.5029 15.4667C9.51489 15.3338 9.56366 15.2068 9.64375 15.1L12.2295 11.6527C12.2883 11.5744 12.3305 11.4849 12.3534 11.3897C12.3764 11.2945 12.3797 11.1956 12.3631 11.0991C12.3465 11.0026 12.3104 10.9105 12.2569 10.8285C12.2034 10.7465 12.1337 10.6762 12.0521 10.6221C11.9705 10.5679 11.8787 10.5311 11.7823 10.5137C11.686 10.4963 11.5871 10.4988 11.4917 10.521C11.3963 10.5432 11.3065 10.5847 11.2277 10.6429C11.149 10.7011 11.0829 10.7747 11.0336 10.8594C10.9878 10.9437 10.9256 11.018 10.8506 11.0779C10.7756 11.1379 10.6894 11.1821 10.597 11.2082C10.5046 11.2342 10.408 11.2415 10.3127 11.2296C10.2175 11.2177 10.1256 11.1868 10.0425 11.1388C9.95939 11.0908 9.88673 11.0266 9.82882 10.9501C9.77091 10.8735 9.72892 10.7862 9.70532 10.6931C9.68172 10.6001 9.67699 10.5033 9.69141 10.4084C9.70584 10.3135 9.73912 10.2224 9.7893 10.1406C10.0267 9.72976 10.393 9.40869 10.8315 9.22718C11.2699 9.04568 11.756 9.01387 12.2144 9.1367C12.6727 9.25953 13.0778 9.53014 13.3667 9.90656C13.6557 10.283 13.8123 10.7442 13.8125 11.2188C13.814 11.6875 13.6612 12.1437 13.3777 12.517Z" fill="none"/>
</svg>
