<svg width="64" height="64" viewBox="0 0 64 64" fill="none" xmlns="http://www.w3.org/2000/svg">
<path d="M16.836 18.637V15.759C20.91 14.742 23.931 11.187 23.931 6.951L23.933 2L19.203 2.002L19.202 6.953C19.201 8.66 18.206 10.133 16.757 10.912C16.206 8.774 12.727 8.773 12.181 10.914C10.731 10.135 9.737 8.661 9.739 6.953L9.735 2H5.002V6.953C5.003 11.188 8.027 14.747 12.102 15.76V18.636C8.026 19.652 5.001 23.21 5 27.444L5.002 36.553C5.002 40.788 8.023 44.347 12.099 45.365L12.1 48.241C8.025 49.256 5.003 52.814 5.004 57.049L5.003 62L9.732 61.998L9.734 57.049C9.734 55.341 10.729 53.867 12.18 53.088C12.73 55.227 16.21 55.227 16.754 53.086C18.204 53.864 19.199 55.338 19.199 57.045V62L23.932 61.998V57.047C23.931 52.813 20.907 49.253 16.832 48.24V45.365C20.909 44.349 23.933 40.79 23.933 36.555V27.446C23.934 23.21 20.912 19.653 16.836 18.637ZM16.755 40.516C16.207 38.377 12.728 38.377 12.177 40.515C10.728 39.735 9.735 38.26 9.735 36.554V27.447C9.736 25.739 10.731 24.264 12.181 23.486C12.733 25.626 16.209 25.625 16.757 23.487C18.207 24.266 19.201 25.739 19.199 27.447L19.201 36.554C19.199 38.262 18.205 39.736 16.755 40.516ZM51.902 33.449V30.551C55.976 29.528 58.996 25.945 58.996 21.68L58.998 12.507C59.002 8.244 55.977 4.66 51.897 3.637V2.002L47.166 2V3.637C43.091 4.658 40.068 8.243 40.068 12.507V21.682C40.07 25.946 43.091 29.531 47.166 30.553V33.449C43.092 34.471 40.068 38.054 40.066 42.318L40.068 51.493C40.068 55.759 43.09 59.342 47.167 60.365L47.166 61.998L51.899 62V60.365C55.976 59.342 59 55.759 59 51.495V42.322C59 38.055 55.979 34.473 51.902 33.449ZM44.804 21.682L44.802 12.507C44.801 10.806 45.772 9.335 47.196 8.544C47.511 11.078 51.556 11.076 51.869 8.543C53.294 9.334 54.266 10.806 54.269 12.511L54.267 21.683C54.266 23.402 53.272 24.885 51.823 25.67C51.272 23.518 47.792 23.518 47.245 25.671C45.796 24.885 44.803 23.401 44.804 21.682ZM51.867 55.459C51.554 52.924 47.511 52.924 47.195 55.457C45.772 54.665 44.8 53.193 44.801 51.493V42.322C44.802 40.601 45.796 39.117 47.246 38.333C47.8 40.486 51.275 40.485 51.823 38.332C53.272 39.117 54.266 40.602 54.263 42.322L54.265 51.493C54.266 53.195 53.292 54.668 51.867 55.459Z" fill="none"/>
</svg>
