<svg width="24" height="24" viewBox="0 0 24 24" fill="none" xmlns="http://www.w3.org/2000/svg">
<path fill-rule="evenodd" clip-rule="evenodd" d="M0 12.0001C0 5.37109 5.37097 0.00012207 12 0.00012207C18.629 0.00012207 24 5.37109 24 12.0001C24 18.6292 18.629 24.0001 12 24.0001C5.37097 24.0001 0 18.6292 0 12.0001ZM22.3747 13.2729H20.9654H13.2732L13.2729 22.3752C18.0464 21.7972 21.7983 18.0094 22.3747 13.2729ZM10.7273 22.3748L10.7277 13.2729H1.62487C2.20285 18.0465 5.99073 21.7984 10.7273 22.3748ZM22.3751 10.7273H13.2732V3.03512L13.2732 1.6255C18.0095 2.20209 21.7972 5.95395 22.3751 10.7273ZM10.7277 1.62494C5.95403 2.20273 2.20195 5.99048 1.62537 10.727L10.7277 10.7273V1.62494Z" fill="#303030"/>
</svg>
