<svg width="24" height="24" viewBox="0 0 24 24" fill="none" xmlns="http://www.w3.org/2000/svg">
<path fill-rule="evenodd" clip-rule="evenodd" d="M12 24.0001C18.6274 24.0001 24 18.6275 24 12.0001C24 5.3727 18.6274 0.00012207 12 0.00012207C5.37258 0.00012207 0 5.3727 0 12.0001C0 18.6275 5.37258 24.0001 12 24.0001ZM13.1883 3.63281V10.8122H21.8483C22.0667 10.8122 22.2441 10.9896 22.2441 11.2081V12.7922C22.2441 13.0106 22.0667 13.1881 21.8483 13.1881H20.3677H13.1883L13.188 21.8483C13.188 22.0667 13.0105 22.2442 12.7921 22.2442H11.208C10.9896 22.2442 10.8121 22.0667 10.8121 21.8483L10.8125 13.1881H2.15186C1.93345 13.1881 1.756 13.0106 1.756 12.7922L1.75635 11.2077C1.75635 10.9893 1.9338 10.8118 2.15221 10.8118L10.8125 10.8122V2.15227C10.8125 1.93386 10.9899 1.75641 11.2083 1.75641H12.7925C13.0109 1.75641 13.1883 1.93386 13.1883 2.15227V3.63281Z" fill="#303030"/>
</svg>
