<svg width="74" height="74" viewBox="0 0 74 74" fill="none" xmlns="http://www.w3.org/2000/svg">
<path d="M37 16.1875C37 15.5742 36.7564 14.986 36.3227 14.5523C35.889 14.1186 35.3008 13.875 34.6875 13.875C34.0742 13.875 33.486 14.1186 33.0523 14.5523C32.6186 14.986 32.375 15.5742 32.375 16.1875V41.625C32.3751 42.0326 32.483 42.4329 32.6877 42.7854C32.8924 43.1379 33.1866 43.4301 33.5405 43.6323L49.728 52.8823C50.2592 53.1693 50.8817 53.2373 51.4623 53.0715C52.0429 52.9057 52.5357 52.5194 52.8353 51.9952C53.1349 51.4709 53.2175 50.8502 53.0655 50.2658C52.9136 49.6814 52.539 49.1797 52.022 48.8677L37 40.2838V16.1875Z" fill="none"/>
<path d="M37 74C46.813 74 56.2241 70.1018 63.163 63.163C70.1018 56.2241 74 46.813 74 37C74 27.187 70.1018 17.7759 63.163 10.837C56.2241 3.8982 46.813 0 37 0C27.187 0 17.7759 3.8982 10.837 10.837C3.8982 17.7759 0 27.187 0 37C0 46.813 3.8982 56.2241 10.837 63.163C17.7759 70.1018 27.187 74 37 74ZM69.375 37C69.375 45.5864 65.9641 53.8211 59.8926 59.8926C53.8211 65.9641 45.5864 69.375 37 69.375C28.4136 69.375 20.1789 65.9641 14.1074 59.8926C8.03593 53.8211 4.625 45.5864 4.625 37C4.625 28.4136 8.03593 20.1789 14.1074 14.1074C20.1789 8.03593 28.4136 4.625 37 4.625C45.5864 4.625 53.8211 8.03593 59.8926 14.1074C65.9641 20.1789 69.375 28.4136 69.375 37Z" fill="none"/>
</svg>
