<svg width="96" height="96" viewBox="0 0 96 96" fill="none" xmlns="http://www.w3.org/2000/svg">
<g clip-path="url(#clip0_519_2)">
<path d="M47.1998 43.6C38.1198 41.24 35.1998 38.8 35.1998 35C35.1998 30.64 39.2398 27.6 45.9998 27.6C53.1198 27.6 55.7598 31 55.9998 36H64.8398C64.5598 29.12 60.3598 22.8 51.9998 20.76V12H39.9998V20.64C32.2398 22.32 25.9998 27.36 25.9998 35.08C25.9998 44.32 33.6398 48.92 44.7998 51.6C54.7998 54 56.7998 57.52 56.7998 61.24C56.7998 64 54.8398 68.4 45.9998 68.4C37.7598 68.4 34.5198 64.72 34.0798 60H25.2798C25.7598 68.76 32.3198 73.68 39.9998 75.32V84H51.9998V75.4C59.7998 73.92 65.9998 69.4 65.9998 61.2C65.9998 49.84 56.2798 45.96 47.1998 43.6Z" fill="none"/>
</g>
<defs>
<clipPath id="clip0_519_2">
<rect width="96" height="96" fill="none"/>
</clipPath>
</defs>
</svg>
