<svg width="20" height="20" viewBox="0 0 20 20" fill="none" xmlns="http://www.w3.org/2000/svg">
<path d="M16.6668 3.33301H5.00016C4.081 3.33301 3.3335 4.08051 3.3335 4.99967V9.16634H5.00016V6.66634L10.3335 10.6663C10.4778 10.7744 10.6532 10.8328 10.8335 10.8328C11.0138 10.8328 11.1892 10.7744 11.3335 10.6663L16.6668 6.66634V14.1663H10.0002V15.833H16.6668C17.586 15.833 18.3335 15.0855 18.3335 14.1663V4.99967C18.3335 4.08051 17.586 3.33301 16.6668 3.33301ZM10.8335 8.95801L5.55516 4.99967H16.1118L10.8335 8.95801Z" fill="white"/>
<path d="M1.6665 10H7.49984V11.6667H1.6665V10ZM3.33317 12.5H8.33317V14.1667H3.33317V12.5ZM5.83317 15H9.1665V16.6667H5.83317V15Z" fill="white"/>
</svg>
