<svg width="15" height="15" viewBox="0 0 15 15" fill="none" xmlns="http://www.w3.org/2000/svg">
<path d="M7.5 0C3.35685 0 0 3.35685 0 7.5C0 11.6431 3.35685 15 7.5 15C11.6431 15 15 11.6431 15 7.5C15 3.35685 11.6431 0 7.5 0ZM7.5 14.0323C3.91028 14.0323 0.967742 11.126 0.967742 7.5C0.967742 3.91028 3.87399 0.967742 7.5 0.967742C11.0897 0.967742 14.0323 3.87399 14.0323 7.5C14.0323 11.0897 11.126 14.0323 7.5 14.0323ZM10.3669 5.40423L8.27117 7.5L10.3669 9.59577C10.5091 9.7379 10.5091 9.96774 10.3669 10.1099L10.1099 10.3669C9.96774 10.5091 9.7379 10.5091 9.59577 10.3669L7.5 8.27117L5.40423 10.3669C5.2621 10.5091 5.03226 10.5091 4.89012 10.3669L4.63306 10.1099C4.49093 9.96774 4.49093 9.7379 4.63306 9.59577L6.72883 7.5L4.63306 5.40423C4.49093 5.2621 4.49093 5.03226 4.63306 4.89012L4.89012 4.63306C5.03226 4.49093 5.2621 4.49093 5.40423 4.63306L7.5 6.72883L9.59577 4.63306C9.7379 4.49093 9.96774 4.49093 10.1099 4.63306L10.3669 4.89012C10.506 5.03226 10.506 5.2621 10.3669 5.40423Z" fill="#D02828"/>
</svg>
