<svg width="10" height="11" viewBox="0 0 10 11" fill="none" xmlns="http://www.w3.org/2000/svg">
<path d="M1.31913 10.375C1.02996 10.375 0.782402 10.2689 0.576473 10.0568C0.370543 9.84462 0.267578 9.58958 0.267578 9.29167V1.70833C0.267578 1.41042 0.370543 1.15538 0.576473 0.943229C0.782402 0.731076 1.02996 0.625 1.31913 0.625H4.99958V1.70833H1.31913V9.29167H8.68002V5.5H9.73158V9.29167C9.73158 9.58958 9.62861 9.84462 9.42268 10.0568C9.21675 10.2689 8.9692 10.375 8.68002 10.375H1.31913ZM3.79029 7.50417L3.0542 6.74583L7.94393 1.70833H6.05113V0.625H9.73158V4.41667H8.68002V2.46667L3.79029 7.50417Z" fill="none"/>
</svg>
