<svg width="1024" height="1024" viewBox="0 0 1024 1024" fill="none" xmlns="http://www.w3.org/2000/svg">
<path d="M254.89 758.85L380.46 633.28C348.847 600.005 331.483 555.697 332.071 509.803C332.658 463.909 351.151 420.06 383.605 387.605C416.06 355.151 459.909 336.658 505.803 336.071C551.697 335.483 596.005 352.847 629.28 384.46L757 256.72C686.793 209.62 605.127 186.047 512 186C319.8 186 176.4 286.1 81.7999 486.3C77.9975 494.352 76.0254 503.146 76.0254 512.05C76.0254 520.954 77.9975 529.748 81.7999 537.8C127.98 635.073 185.677 708.757 254.89 758.85V758.85ZM942.2 486.2C907.04 412.14 865.207 351.74 816.7 305L672.48 449.27C684.56 481.007 687.206 515.561 680.098 548.767C672.991 581.974 656.433 612.417 632.42 636.429C608.407 660.44 577.964 676.997 544.757 684.103C511.55 691.209 476.997 688.562 445.26 676.48L323 798.75C379.667 824.917 442.667 838 512 838C704.2 838 847.6 737.9 942.2 537.7C946.003 529.649 947.976 520.855 947.976 511.95C947.976 503.045 946.003 494.252 942.2 486.2V486.2Z" fill="black" fill-opacity="0.15"/>
<path d="M942.2 486.2C907.047 412.14 865.213 351.74 816.7 305L765.82 355.88C807.31 395.53 843.45 447.4 874.7 512C791.5 684.2 673.4 766 512 766C463.553 766 418.93 758.54 378.13 743.62L323 798.75C379.667 824.917 442.667 838 512 838C704.2 838 847.6 737.9 942.2 537.7C946.003 529.649 947.976 520.855 947.976 511.95C947.976 503.046 946.003 494.252 942.2 486.2V486.2ZM878.63 165.56L836 122.88C835.257 122.136 834.375 121.546 833.403 121.144C832.432 120.741 831.391 120.534 830.34 120.534C829.289 120.534 828.248 120.741 827.276 121.144C826.305 121.546 825.423 122.136 824.68 122.88L715.31 232.2C655.01 201.4 587.24 186 512 186C319.8 186 176.4 286.1 81.7999 486.3C77.9975 494.352 76.0254 503.146 76.0254 512.05C76.0254 520.954 77.9975 529.748 81.7999 537.8C119.593 617.4 165.093 681.203 218.3 729.21L112.48 835C110.981 836.5 110.139 838.534 110.139 840.655C110.139 842.776 110.981 844.81 112.48 846.31L155.17 889C156.67 890.499 158.704 891.341 160.825 891.341C162.946 891.341 164.98 890.499 166.48 889L878.63 176.88C879.374 176.137 879.964 175.255 880.366 174.284C880.769 173.312 880.976 172.271 880.976 171.22C880.976 170.169 880.769 169.128 880.366 168.156C879.964 167.185 879.374 166.303 878.63 165.56ZM149.3 512C232.6 339.8 350.7 258 512 258C566.54 258 616.13 267.36 661.12 286.39L590.82 356.69C557.527 338.926 519.406 332.334 482.08 337.885C444.755 343.435 410.202 360.836 383.519 387.519C356.836 414.202 339.435 448.755 333.884 486.081C328.334 523.406 334.926 561.527 352.69 594.82L269.27 678.24C223.1 637.49 183.3 582.28 149.3 512ZM396 512C396.017 494.366 400.194 476.986 408.191 461.27C416.188 445.554 427.779 431.946 442.023 421.551C456.267 411.156 472.762 404.268 490.169 401.446C507.575 398.624 525.401 399.948 542.2 405.31L401.31 546.2C397.779 535.144 395.987 523.606 396 512V512Z" fill="black"/>
<path d="M508 624C504.54 624 501.13 623.84 497.75 623.53L444.93 676.35C476.699 688.516 511.312 691.22 544.585 684.134C577.858 677.048 608.366 660.476 632.421 636.421C656.476 612.366 673.049 581.858 680.134 548.585C687.22 515.312 684.517 480.699 672.35 448.93L619.53 501.75C619.84 505.13 620 508.54 620 512C620.008 526.71 617.117 541.278 611.491 554.87C605.865 568.462 597.615 580.812 587.214 591.214C576.812 601.615 564.462 609.865 550.87 615.491C537.278 621.116 522.71 624.008 508 624V624Z" fill="black"/>
</svg>
