<svg width="1024" height="1024" viewBox="0 0 1024 1024" fill="none" xmlns="http://www.w3.org/2000/svg">
<path d="M942.2 486.2C847.4 286.5 704.1 186 512 186C319.8 186 176.6 286.5 81.7999 486.3C77.9975 494.352 76.0254 503.146 76.0254 512.05C76.0254 520.954 77.9975 529.748 81.7999 537.8C176.6 737.5 319.9 838 512 838C704.2 838 847.4 737.5 942.2 537.7C949.9 521.5 949.9 502.7 942.2 486.2V486.2ZM512 766C350.7 766 232.6 684.2 149.3 512C232.6 339.8 350.7 258 512 258C673.3 258 791.4 339.8 874.7 512C791.5 684.2 673.4 766 512 766ZM508 336C410.8 336 332 414.8 332 512C332 609.2 410.8 688 508 688C605.2 688 684 609.2 684 512C684 414.8 605.2 336 508 336ZM508 624C446.1 624 396 573.9 396 512C396 450.1 446.1 400 508 400C569.9 400 620 450.1 620 512C620 573.9 569.9 624 508 624Z" fill="black"/>
</svg>
