<svg width="21" height="15" viewBox="0 0 21 15" fill="none" xmlns="http://www.w3.org/2000/svg">
<path d="M20.2871 7.23422C20.2584 7.16941 19.5636 5.62805 18.019 4.0834C15.9608 2.02523 13.3612 0.9375 10.5 0.9375C7.63874 0.9375 5.03917 2.02523 2.98101 4.0834C1.43636 5.62805 0.738273 7.17188 0.712844 7.23422C0.67553 7.31815 0.65625 7.40897 0.65625 7.50082C0.65625 7.59267 0.67553 7.68349 0.712844 7.76742C0.741555 7.83223 1.43636 9.37277 2.98101 10.9174C5.03917 12.9748 7.63874 14.0625 10.5 14.0625C13.3612 14.0625 15.9608 12.9748 18.019 10.9174C19.5636 9.37277 20.2584 7.83223 20.2871 7.76742C20.3245 7.68349 20.3437 7.59267 20.3437 7.50082C20.3437 7.40897 20.3245 7.31815 20.2871 7.23422ZM10.5 12.75C7.97507 12.75 5.76925 11.8321 3.94323 10.0225C3.194 9.27737 2.55657 8.42774 2.05077 7.5C2.55643 6.57218 3.19388 5.72253 3.94323 4.97754C5.76925 3.16793 7.97507 2.25 10.5 2.25C13.0249 2.25 15.2307 3.16793 17.0567 4.97754C17.8074 5.72235 18.4463 6.572 18.9533 7.5C18.3619 8.60414 15.7853 12.75 10.5 12.75ZM10.5 3.5625C9.72123 3.5625 8.95995 3.79343 8.31243 4.22609C7.66492 4.65875 7.16024 5.2737 6.86222 5.99318C6.5642 6.71267 6.48622 7.50437 6.63815 8.26817C6.79008 9.03197 7.16509 9.73356 7.71576 10.2842C8.26643 10.8349 8.96802 11.2099 9.73182 11.3618C10.4956 11.5138 11.2873 11.4358 12.0068 11.1378C12.7263 10.8398 13.3412 10.3351 13.7739 9.68756C14.2066 9.04004 14.4375 8.27876 14.4375 7.5C14.4364 6.45604 14.0212 5.45516 13.283 4.71697C12.5448 3.97878 11.5439 3.56359 10.5 3.5625ZM10.5 10.125C9.98082 10.125 9.4733 9.97105 9.04162 9.68261C8.60994 9.39417 8.27349 8.9842 8.07481 8.50454C7.87613 8.02489 7.82414 7.49709 7.92543 6.98789C8.02672 6.47869 8.27672 6.01096 8.64384 5.64384C9.01095 5.27673 9.47868 5.02672 9.98788 4.92544C10.4971 4.82415 11.0249 4.87614 11.5045 5.07482C11.9842 5.2735 12.3942 5.60995 12.6826 6.04163C12.971 6.47331 13.125 6.98082 13.125 7.5C13.125 8.19619 12.8484 8.86387 12.3561 9.35615C11.8639 9.84844 11.1962 10.125 10.5 10.125Z" fill="none"/>
</svg>
