<svg width="66" height="56" viewBox="0 0 66 56" fill="none" xmlns="http://www.w3.org/2000/svg">
<path d="M53.7308 56C50.2955 56 47.3918 54.8167 45.0197 52.4501C42.6477 50.0834 41.4617 47.1864 41.4617 43.7588C41.4617 40.3313 42.6477 37.4342 45.0197 35.0676C47.3918 32.701 50.2955 31.5177 53.7308 31.5177C57.1661 31.5177 60.0698 32.701 62.4419 35.0676C64.8139 37.4342 66 40.3313 66 43.7588C66 47.1864 64.8139 50.0834 62.4419 52.4501C60.0698 54.8167 57.1661 56 53.7308 56ZM53.7273 50.5127C55.5959 50.5127 57.1918 49.8537 58.5151 48.5358C59.8384 47.2179 60.5001 45.6267 60.5001 43.7624C60.5001 41.8981 59.8396 40.3057 58.5187 38.9855C57.1978 37.6652 55.603 37.005 53.7343 37.005C51.8657 37.005 50.2698 37.664 48.9465 38.9819C47.6232 40.2998 46.9615 41.8909 46.9615 43.7553C46.9615 45.6197 47.622 47.212 48.9429 48.5323C50.2638 49.8526 51.8586 50.5127 53.7273 50.5127ZM5.50002 46.5025V41.0152H33.4231V46.5025H5.50002ZM12.2692 24.4824C8.83385 24.4824 5.93015 23.299 3.55805 20.9324C1.18602 18.5658 0 15.6687 0 12.2412C0 8.81364 1.18602 5.91656 3.55805 3.54994C5.93015 1.18331 8.83385 0 12.2692 0C15.7045 0 18.6082 1.18331 20.9803 3.54994C23.3523 5.91656 24.5383 8.81364 24.5383 12.2412C24.5383 15.6687 23.3523 18.5658 20.9803 20.9324C18.6082 23.299 15.7045 24.4824 12.2692 24.4824ZM12.2657 18.995C14.1343 18.995 15.7302 18.336 17.0535 17.0181C18.3768 15.7002 19.0385 14.1091 19.0385 12.2447C19.0385 10.3803 18.378 8.788 17.0571 7.46771C15.7362 6.14743 14.1414 5.48729 12.2727 5.48729C10.4041 5.48729 8.80818 6.14627 7.48488 7.46424C6.16158 8.78214 5.49992 10.3733 5.49992 12.2376C5.49992 14.1019 6.16038 15.6943 7.4813 17.0145C8.80223 18.3348 10.397 18.995 12.2657 18.995ZM32.5769 14.9848V9.49753H60.5V14.9848H32.5769Z" fill="none"/>
</svg>
