<svg width="240" height="160" viewBox="0 0 240 160" fill="none" xmlns="http://www.w3.org/2000/svg">
<g clip-path="url(#clip0_688_3)">
<path d="M0 0H240V160H0V0Z" fill="#012169"/>
<path d="M28.125 0L119.625 60.3333L210.75 0H240V20.6667L150 80.3333L240 139.667V160H210L120 100.333L30.375 160H0V140L89.625 80.6667L0 21.3333V0H28.125Z" fill="white"/>
<path d="M159 93.6667L240 146.667V160L138.375 93.6667H159ZM90 100.333L92.25 112L20.25 160H0L90 100.333ZM240 0V1L146.625 63.6667L147.375 49L221.25 0H240ZM0 0L89.625 58.6667H67.125L0 14V0Z" fill="#C8102E"/>
<path d="M90.375 0V160H150.375V0H90.375ZM0 53.3333V106.667H240V53.3333H0Z" fill="white"/>
<path d="M0 64.3333V96.3333H240V64.3333H0ZM102.375 0V160H138.375V0H102.375Z" fill="#C8102E"/>
</g>
<defs>
<clipPath id="clip0_688_3">
<rect width="240" height="160" fill="white"/>
</clipPath>
</defs>
</svg>
