<svg width="24" height="24" viewBox="0 0 24 24" fill="none" xmlns="http://www.w3.org/2000/svg">
<path d="M12 1.5C12.985 1.5 14.11 2.385 15.033 4.362C15.449 5.254 15.795 6.315 16.047 7.5H7.953C8.205 6.315 8.551 5.254 8.967 4.362C9.89 2.385 11.015 1.5 12 1.5ZM7.608 3.728C7.102 4.812 6.698 6.09 6.422 7.5H2.51C3.11 6.23845 3.95496 5.10886 4.99568 4.17699C6.0364 3.24511 7.2521 2.52956 8.572 2.072C8.19812 2.59169 7.87529 3.14626 7.608 3.728ZM6.183 9C6.063 9.96 6 10.966 6 12C6 13.034 6.063 14.04 6.183 15H1.935C1.64568 14.0263 1.49915 13.0158 1.5 12C1.5 10.957 1.652 9.95 1.935 9H6.183ZM6.422 16.5C6.698 17.91 7.102 19.188 7.608 20.272C7.888 20.871 8.209 21.432 8.572 21.928C7.2521 21.4704 6.0364 20.7549 4.99568 19.823C3.95496 18.8911 3.11 17.7615 2.51 16.5H6.422ZM7.952 16.5H16.047C15.795 17.685 15.449 18.746 15.033 19.638C14.11 21.615 12.985 22.5 12 22.5C11.015 22.5 9.89 21.615 8.967 19.638C8.551 18.746 8.205 17.685 7.953 16.5M16.306 15H7.696C7.56488 14.0054 7.49974 13.0032 7.501 12C7.501 10.955 7.57 9.949 7.696 9H16.306C16.433 9.949 16.501 10.955 16.501 12C16.501 13.045 16.432 14.051 16.306 15ZM17.579 16.5H21.491C20.891 17.7615 20.046 18.8911 19.0053 19.823C17.9646 20.7549 16.7489 21.4704 15.429 21.928C15.8029 21.4083 16.1257 20.8538 16.393 20.272C16.899 19.188 17.303 17.909 17.579 16.5ZM22.066 15H17.818C17.938 14.04 18.001 13.034 18.001 12C18.001 10.966 17.938 9.96 17.818 9H22.066C22.349 9.95 22.501 10.957 22.501 12C22.501 13.043 22.349 14.05 22.066 15ZM15.428 2.072C16.7479 2.52956 17.9636 3.24511 19.0043 4.17699C20.045 5.10886 20.89 6.23845 21.49 7.5H17.578C17.302 6.09 16.898 4.812 16.392 3.728C16.1247 3.14625 15.8019 2.59167 15.428 2.072ZM12 24C18.627 24 24 18.627 24 12C24 5.373 18.627 0 12 0C5.373 0 0 5.373 0 12C0 18.627 5.373 24 12 24Z" fill="none"/>
</svg>
