<svg width="16" height="20" viewBox="0 0 16 20" fill="none" xmlns="http://www.w3.org/2000/svg">
<path d="M2 2H0V0H16V2H14V4C14 5.615 13.184 6.915 12.156 7.977C11.453 8.703 10.598 9.372 9.731 10C10.598 10.628 11.453 11.297 12.156 12.023C13.184 13.085 14 14.385 14 16V18H16V20H0V18H2V16C2 14.385 2.816 13.085 3.844 12.023C4.547 11.297 5.402 10.628 6.269 10C5.402 9.372 4.547 8.703 3.844 7.977C2.816 6.915 2 5.615 2 4V2ZM4 2V4C4 4.885 4.434 5.71 5.281 6.586C6.008 7.337 6.955 8.04 8 8.778C9.045 8.04 9.992 7.337 10.719 6.586C11.566 5.71 12 4.885 12 4V2H4ZM8 11.222C6.955 11.96 6.008 12.663 5.281 13.414C4.434 14.29 4 15.115 4 16V18H12V16C12 15.115 11.566 14.29 10.719 13.414C9.992 12.663 9.045 11.96 8 11.222Z" fill="none"/>
</svg>
