<svg width="256" height="256" viewBox="0 0 256 256" fill="none" xmlns="http://www.w3.org/2000/svg">
<path d="M128 24C107.431 24 87.3235 30.0995 70.2207 41.5272C53.118 52.9548 39.7881 69.1974 31.9166 88.2009C24.0451 107.204 21.9855 128.115 25.9984 148.289C30.0112 168.463 39.9163 186.994 54.4609 201.539C69.0056 216.084 87.5366 225.989 107.711 230.002C127.885 234.015 148.796 231.955 167.799 224.083C186.803 216.212 203.045 202.882 214.473 185.779C225.901 168.677 232 148.569 232 128C231.971 100.426 221.004 73.9905 201.507 54.4931C182.01 34.9956 155.574 24.0291 128 24ZM128 216C110.595 216 93.5814 210.839 79.1099 201.169C64.6383 191.5 53.3592 177.756 46.6986 161.676C40.0381 145.596 38.2954 127.902 41.6909 110.832C45.0864 93.7617 53.4676 78.0816 65.7747 65.7746C78.0817 53.4676 93.7618 45.0864 110.832 41.6909C127.902 38.2954 145.596 40.0381 161.676 46.6986C177.756 53.3591 191.5 64.6383 201.169 79.1098C210.839 93.5813 216 110.595 216 128C215.974 151.331 206.694 173.699 190.196 190.196C173.699 206.694 151.331 215.974 128 216ZM144 176C144 178.122 143.157 180.157 141.657 181.657C140.157 183.157 138.122 184 136 184C131.757 184 127.687 182.314 124.686 179.314C121.686 176.313 120 172.243 120 168V128C117.878 128 115.843 127.157 114.343 125.657C112.843 124.157 112 122.122 112 120C112 117.878 112.843 115.843 114.343 114.343C115.843 112.843 117.878 112 120 112C124.244 112 128.313 113.686 131.314 116.686C134.314 119.687 136 123.757 136 128V168C138.122 168 140.157 168.843 141.657 170.343C143.157 171.843 144 173.878 144 176ZM112 84C112 81.6266 112.704 79.3066 114.022 77.3332C115.341 75.3598 117.215 73.8217 119.408 72.9134C121.601 72.0052 124.013 71.7676 126.341 72.2306C128.669 72.6936 130.807 73.8365 132.485 75.5147C134.164 77.1929 135.306 79.3311 135.769 81.6589C136.232 83.9867 135.995 86.3995 135.087 88.5922C134.178 90.7849 132.64 92.6591 130.667 93.9776C128.693 95.2962 126.373 96 124 96C120.817 96 117.765 94.7357 115.515 92.4853C113.264 90.2348 112 87.1826 112 84Z" fill="black"/>
</svg>
