<svg width="78" height="100" viewBox="0 0 78 100" fill="none" xmlns="http://www.w3.org/2000/svg">
<path d="M39 99.4998C32.0532 93.5742 25.6141 87.0781 19.75 80.0793C10.95 69.5688 0.500005 53.9158 0.500005 38.9998C0.496188 31.3821 2.7523 23.9344 6.98282 17.5994C11.2133 11.2644 17.2281 6.32679 24.2659 3.41146C31.3037 0.496126 39.0481 -0.26588 46.5191 1.22188C53.9902 2.70964 60.8519 6.38028 66.236 11.7693C69.8206 15.338 72.6619 19.5822 74.5954 24.2563C76.5289 28.9304 77.5161 33.9416 77.5 38.9998C77.5 53.9158 67.05 69.5688 58.25 80.0793C52.3859 87.0781 45.9468 93.5742 39 99.4998ZM39 11.4998C31.7092 11.5085 24.7196 14.4086 19.5642 19.564C14.4089 24.7193 11.5087 31.709 11.5 38.9998C11.5 45.4128 14.3985 56.5173 28.1925 73.0228C31.5922 77.0821 35.1995 80.963 39 84.6498C42.8006 80.9671 46.4097 77.0919 49.813 73.0393C63.6015 56.5118 66.5 45.4073 66.5 38.9998C66.4913 31.709 63.5912 24.7193 58.4358 19.564C53.2804 14.4086 46.2908 11.5085 39 11.4998ZM39 55.4998C34.6239 55.4998 30.4271 53.7614 27.3327 50.667C24.2384 47.5727 22.5 43.3758 22.5 38.9998C22.5 34.6237 24.2384 30.4269 27.3327 27.3325C30.4271 24.2382 34.6239 22.4998 39 22.4998C43.3761 22.4998 47.5729 24.2382 50.6673 27.3325C53.7616 30.4269 55.5 34.6237 55.5 38.9998C55.5 43.3758 53.7616 47.5727 50.6673 50.667C47.5729 53.7614 43.3761 55.4998 39 55.4998Z" fill="#202020"/>
</svg>
