<svg width="129" height="100" viewBox="0 0 129 100" fill="none" xmlns="http://www.w3.org/2000/svg">
<g clip-path="url(#clip0_485_2)">
<path d="M23.4516 99.5026V92.884C23.4516 90.3463 21.9026 88.6921 19.2475 88.6921C17.9202 88.6921 16.482 89.1333 15.4863 90.5674C14.7123 89.3539 13.6062 88.6921 11.9469 88.6921C10.8403 88.6921 9.73474 89.0227 8.84938 90.2363V88.9127H6.52637V99.5026H8.84938V93.6559C8.84938 91.781 9.84509 90.8981 11.3941 90.8981C12.9421 90.8981 13.7171 91.8911 13.7171 93.6559V99.5026H16.0401V93.6559C16.0401 91.781 17.1457 90.8981 18.5838 90.8981C20.1328 90.8981 20.9068 91.8911 20.9068 93.6559V99.5026H23.4516ZM57.8538 88.9127H54.0931V85.7137H51.7701V88.9127H49.6683V91.0081H51.7696V95.8624C51.7696 98.2895 52.7653 99.7232 55.4204 99.7232C56.4161 99.7232 57.5217 99.3926 58.2967 98.9514L57.6325 96.9654C56.9689 97.4066 56.1949 97.5172 55.6416 97.5172C54.5355 97.5172 54.0931 96.8554 54.0931 95.7519V91.0081H57.8538V88.9127ZM77.5444 88.6916C76.2171 88.6916 75.3322 89.3539 74.779 90.2363V88.9127H72.456V99.5026H74.779V93.5458C74.779 91.781 75.553 90.788 76.9911 90.788C77.4335 90.788 77.9868 90.8986 78.4293 91.0086L79.0929 88.8026C78.6505 88.6921 77.9868 88.6921 77.5444 88.6921V88.6916ZM47.7877 89.7951C46.6811 89.0227 45.1326 88.6921 43.4733 88.6921C40.8187 88.6921 39.049 90.0157 39.049 92.1117C39.049 93.877 40.3763 94.8694 42.6993 95.2006L43.8053 95.3112C45.0223 95.5313 45.6859 95.8624 45.6859 96.4142C45.6859 97.186 44.8011 97.7378 43.2521 97.7378C41.7036 97.7378 40.4866 97.186 39.7121 96.6348L38.606 98.3996C39.823 99.282 41.4823 99.7232 43.1412 99.7232C46.2387 99.7232 48.0089 98.2895 48.0089 96.3036C48.0089 94.4282 46.5708 93.4353 44.3581 93.1046L43.2521 92.9941C42.2563 92.8835 41.4823 92.6634 41.4823 92.0016C41.4823 91.2292 42.2563 90.788 43.4733 90.788C44.8011 90.788 46.1284 91.3393 46.792 91.6705L47.7877 89.7951ZM109.514 88.6921C108.186 88.6921 107.301 89.3539 106.748 90.2363V88.9127H104.425V99.5026H106.748V93.5458C106.748 91.781 107.522 90.788 108.96 90.788C109.403 90.788 109.956 90.8986 110.399 91.0086L111.062 88.8026C110.62 88.6921 109.956 88.6921 109.514 88.6921ZM79.8674 94.2076C79.8674 97.4066 82.0795 99.7232 85.5091 99.7232C87.0576 99.7232 88.1637 99.3926 89.2698 98.5101L88.1637 96.6348C87.2789 97.2966 86.394 97.6272 85.3983 97.6272C83.5177 97.6272 82.1904 96.3036 82.1904 94.2076C82.1904 92.2222 83.5177 90.8981 85.3983 90.788C86.394 90.788 87.2789 91.1187 88.1637 91.781L89.2698 89.9056C88.1637 89.0227 87.0576 88.6921 85.5091 88.6921C82.0795 88.6921 79.8674 91.0086 79.8674 94.2076ZM101.328 94.2076V88.9127H99.0048V90.2363C98.2303 89.2438 97.1242 88.6921 95.686 88.6921C92.6994 88.6921 90.3764 91.0086 90.3764 94.2076C90.3764 97.4066 92.6994 99.7232 95.686 99.7232C97.2345 99.7232 98.3411 99.172 99.0048 98.179V99.5026H101.328V94.2076ZM92.8097 94.2076C92.8097 92.3323 94.0267 90.788 96.0176 90.788C97.8982 90.788 99.226 92.2222 99.226 94.2076C99.226 96.083 97.8982 97.6272 96.0176 97.6272C94.0267 97.5167 92.8097 96.083 92.8097 94.2076ZM65.0445 88.6921C61.947 88.6921 59.7343 90.8981 59.7343 94.2076C59.7343 97.5172 61.9465 99.7232 65.1549 99.7232C66.7034 99.7232 68.2524 99.282 69.4693 98.2895L68.3627 96.6348C67.4779 97.2966 66.3718 97.7378 65.2657 97.7378C63.8276 97.7378 62.3894 97.076 62.0573 95.2001H69.9117V94.3182C70.0226 90.8981 68.0317 88.6921 65.0445 88.6921ZM65.0445 90.6775C66.4821 90.6775 67.4784 91.5604 67.6991 93.2152H62.1682C62.3894 91.781 63.3851 90.6775 65.0445 90.6775ZM122.677 94.2076V84.7207H120.354V90.2363C119.58 89.2438 118.474 88.6921 117.036 88.6921C114.049 88.6921 111.726 91.0086 111.726 94.2076C111.726 97.4066 114.049 99.7232 117.036 99.7232C118.585 99.7232 119.691 99.172 120.354 98.179V99.5026H122.677V94.2076ZM114.16 94.2076C114.16 92.3323 115.376 90.788 117.368 90.788C119.248 90.788 120.575 92.2222 120.575 94.2076C120.575 96.083 119.248 97.6272 117.368 97.6272C115.376 97.5167 114.16 96.083 114.16 94.2076ZM36.5043 94.2076V88.9127H34.1812V90.2363C33.4067 89.2438 32.3007 88.6921 30.8625 88.6921C27.8759 88.6921 25.5529 91.0086 25.5529 94.2076C25.5529 97.4066 27.8759 99.7232 30.8625 99.7232C32.4115 99.7232 33.5176 99.172 34.1812 98.179V99.5026H36.5043V94.2076ZM27.8759 94.2076C27.8759 92.3323 29.0928 90.788 31.0837 90.788C32.9643 90.788 34.2921 92.2222 34.2921 94.2076C34.2921 96.083 32.9643 97.6272 31.0837 97.6272C29.0928 97.5167 27.8759 96.083 27.8759 94.2076Z" fill="black"/>
<path d="M47.0137 8.49414H81.8588V70.9318H47.0137V8.49414Z" fill="#FF5F00"/>
<path d="M49.2261 39.7131C49.2261 27.0271 55.1994 15.7749 64.3806 8.49397C57.6333 3.199 49.1157 0 39.8237 0C17.8096 0 0 17.7603 0 39.7131C0 61.6653 17.8096 79.4261 39.8232 79.4261C49.1152 79.4261 57.6328 76.2271 64.3806 70.9317C55.1994 63.7613 49.2261 52.399 49.2261 39.7131Z" fill="#EB001B"/>
<path d="M128.872 39.7131C128.872 61.6653 111.062 79.4261 89.0486 79.4261C79.7565 79.4261 71.239 76.2271 64.4912 70.9317C73.7832 63.6513 79.6462 52.399 79.6462 39.7131C79.6462 27.0271 73.6724 15.7749 64.4912 8.49397C71.2385 3.199 79.7565 0 89.0486 0C111.062 0 128.872 17.8709 128.872 39.7131Z" fill="#F79E1B"/>
</g>
<defs>
<clipPath id="clip0_485_2">
<rect width="129" height="100" fill="white"/>
</clipPath>
</defs>
</svg>
