<svg width="24" height="24" viewBox="0 0 24 24" fill="none" xmlns="http://www.w3.org/2000/svg">
<path d="M4.115 20.4999C3.671 20.4999 3.291 20.3416 2.975 20.0249C2.65833 19.7089 2.5 19.3289 2.5 18.8849V4.21191L3.675 5.38691L5.325 3.71191L7 5.38691L8.675 3.71191L10.325 5.38691L12 3.71191L13.675 5.38691L15.325 3.71191L17 5.38691L18.675 3.71191L20.325 5.38691L21.5 4.21191V18.8849C21.5 19.3289 21.3417 19.7089 21.025 20.0249C20.709 20.3416 20.329 20.4999 19.885 20.4999H4.115ZM4.115 19.4999H11.5V12.4999H3.5V18.8849C3.5 19.0642 3.55767 19.2116 3.673 19.3269C3.78833 19.4422 3.93567 19.4999 4.115 19.4999ZM12.5 19.4999H19.885C20.0643 19.4999 20.2117 19.4422 20.327 19.3269C20.4423 19.2116 20.5 19.0642 20.5 18.8849V16.4999H12.5V19.4999ZM12.5 15.4999H20.5V12.4999H12.5V15.4999ZM3.5 11.4999H20.5V7.30791H3.5V11.4999Z" fill="none"/>
</svg>
