<svg width="20" height="18" viewBox="0 0 20 18" fill="none" xmlns="http://www.w3.org/2000/svg">
<g clip-path="url(#clip0_464_3)">
<path d="M2.44442 17.7187C1.93929 17.7187 1.51172 17.5437 1.16172 17.1937C0.811719 16.8437 0.636719 16.4161 0.636719 15.911V2.52645C0.636719 2.02132 0.811719 1.59375 1.16172 1.24375C1.51172 0.89375 1.93929 0.71875 2.44442 0.71875H17.829C18.3341 0.71875 18.7617 0.89375 19.1117 1.24375C19.4617 1.59375 19.6367 2.02132 19.6367 2.52645V15.911C19.6367 16.4161 19.4617 16.8437 19.1117 17.1937C18.7617 17.5437 18.3341 17.7187 17.829 17.7187H2.44442ZM2.44442 16.2187H17.829C17.9059 16.2187 17.9764 16.1867 18.0405 16.1226C18.1046 16.0585 18.1367 15.9879 18.1367 15.911V2.52645C18.1367 2.44952 18.1046 2.37899 18.0405 2.31488C17.9764 2.25078 17.9059 2.21873 17.829 2.21873H2.44442C2.36749 2.21873 2.29696 2.25078 2.23284 2.31488C2.16874 2.37899 2.13669 2.44952 2.13669 2.52645V15.911C2.13669 15.9879 2.16874 16.0585 2.23284 16.1226C2.29696 16.1867 2.36749 16.2187 2.44442 16.2187ZM4.52134 13.8341H15.752V12.3341H4.52134V13.8341ZM4.52134 9.9687H8.21362V4.60338H4.52134V9.9687ZM10.4059 9.9687H15.752V8.46875H10.4059V9.9687ZM10.4059 6.10333H15.752V4.60338H10.4059V6.10333Z" fill="none"/>
</g>
</svg>
