<svg width="20" height="20" viewBox="0 0 20 20" fill="none" xmlns="http://www.w3.org/2000/svg">
<path d="M14.7558 10.2437C14.6785 10.1662 14.5866 10.1048 14.4855 10.0629C14.3844 10.0209 14.2761 9.99935 14.1666 9.99935C14.0572 9.99935 13.9488 10.0209 13.8477 10.0629C13.7466 10.1048 13.6548 10.1662 13.5775 10.2437L12.2491 11.572C11.6333 11.3887 10.4841 10.972 9.75579 10.2437C9.02745 9.51535 8.61079 8.36618 8.42745 7.75035L9.75579 6.42202C9.83324 6.34469 9.89469 6.25286 9.93661 6.15176C9.97854 6.05067 10.0001 5.94229 10.0001 5.83285C10.0001 5.72341 9.97854 5.61503 9.93661 5.51394C9.89469 5.41284 9.83324 5.32101 9.75579 5.24368L6.42245 1.91035C6.34513 1.8329 6.25329 1.77145 6.1522 1.72952C6.0511 1.6876 5.94273 1.66602 5.83329 1.66602C5.72384 1.66602 5.61547 1.6876 5.51437 1.72952C5.41328 1.77145 5.32144 1.8329 5.24412 1.91035L2.98412 4.17035C2.66745 4.48702 2.48912 4.92202 2.49579 5.36618C2.51495 6.55285 2.82912 10.6745 6.07745 13.9229C9.32579 17.1712 13.4475 17.4845 14.635 17.5045H14.6583C15.0983 17.5045 15.5141 17.3312 15.8291 17.0162L18.0891 14.7562C18.1666 14.6789 18.228 14.587 18.2699 14.4859C18.3119 14.3848 18.3335 14.2765 18.3335 14.167C18.3335 14.0576 18.3119 13.9492 18.2699 13.8481C18.228 13.747 18.1666 13.6552 18.0891 13.5779L14.7558 10.2437ZM14.65 15.837C13.61 15.8195 10.0516 15.5404 7.25579 12.7437C4.45079 9.93868 4.17912 6.36785 4.16245 5.34868L5.83329 3.67785L7.98829 5.83285L6.91079 6.91035C6.81284 7.00823 6.74082 7.12896 6.70125 7.26166C6.66167 7.39435 6.65579 7.53481 6.68412 7.67035C6.70412 7.76618 7.19329 10.0387 8.57662 11.422C9.95995 12.8054 12.2325 13.2945 12.3283 13.3145C12.4637 13.3436 12.6043 13.3382 12.7372 13.2988C12.87 13.2593 12.9907 13.1871 13.0883 13.0887L14.1666 12.0112L16.3216 14.1662L14.65 15.837Z" fill="white"/>
</svg>
