<svg width="16" height="17" viewBox="0 0 16 17" fill="none" xmlns="http://www.w3.org/2000/svg">
<path d="M1.99582 16.9695C1.7337 16.9695 1.47415 16.9179 1.23199 16.8176C0.989819 16.7173 0.769782 16.5703 0.584436 16.3849C0.399091 16.1996 0.252066 15.9796 0.151758 15.7374C0.0514495 15.4952 -0.000178589 15.2357 -0.000178589 14.9735C-0.000178589 14.7114 0.0514495 14.4519 0.151758 14.2097C0.252066 13.9675 0.399091 13.7475 0.584436 13.5622C0.769782 13.3768 0.989819 13.2298 1.23199 13.1295C1.47415 13.0292 1.7337 12.9775 1.99582 12.9775C2.52519 12.9775 3.03288 13.1878 3.40721 13.5622C3.78153 13.9365 3.99182 14.4442 3.99182 14.9735C3.99182 15.5029 3.78153 16.0106 3.40721 16.3849C3.03288 16.7593 2.52519 16.9695 1.99582 16.9695ZM1.11982 8.97655C0.860818 9.00215 0.602061 8.92556 0.398721 8.76311C0.195382 8.60065 0.0635481 8.36519 0.0313304 8.10693C-0.00088726 7.84867 0.0690599 7.58803 0.226258 7.38061C0.383456 7.17318 0.615467 7.03536 0.872822 6.99655C2.01286 6.85405 3.17017 6.95562 4.26797 7.29452C5.36576 7.63341 6.37893 8.20188 7.24027 8.96222C8.1016 9.72255 8.79139 10.6574 9.26388 11.7046C9.73638 12.7519 9.98076 13.8876 9.98082 15.0365V15.9715C9.98082 16.2362 9.87568 16.4901 9.68851 16.6772C9.50135 16.8644 9.24751 16.9695 8.98282 16.9695C8.71814 16.9695 8.46429 16.8644 8.27713 16.6772C8.08997 16.4901 7.98482 16.2362 7.98482 15.9715V15.0375C7.98469 14.1716 7.80044 13.3156 7.44428 12.5263C7.08812 11.737 6.56819 11.0324 5.919 10.4593C5.2698 9.88625 4.50617 9.45777 3.67877 9.20231C2.85136 8.94684 1.97909 8.87023 1.11982 8.97755V8.97655ZM-0.00017853 2.06455C-0.00900719 1.93367 0.00805368 1.80233 0.0500282 1.67804C0.0920027 1.55376 0.158067 1.43897 0.244443 1.34024C0.330819 1.24152 0.435812 1.16078 0.553415 1.10267C0.671019 1.04455 0.798927 1.01019 0.929821 1.00155C8.71682 0.482549 15.4478 6.37355 15.9668 14.1595C16.0088 14.7855 16.0088 15.4135 15.9668 16.0395C15.9581 16.1703 15.9237 16.2981 15.8656 16.4156C15.8074 16.5331 15.7267 16.638 15.6281 16.7243C15.5294 16.8107 15.4147 16.8767 15.2905 16.9187C15.1664 16.9607 15.0351 16.9778 14.9043 16.969C14.7735 16.9603 14.6457 16.9259 14.5282 16.8678C14.4107 16.8097 14.3058 16.729 14.2195 16.6303C14.1332 16.5316 14.0672 16.4169 14.0252 16.2928C13.9832 16.1686 13.9661 16.0373 13.9748 15.9065C14.0108 15.3685 14.0108 14.8295 13.9748 14.2925C13.5298 7.60655 7.74982 2.54755 1.06482 2.99355C0.933778 3.00265 0.802227 2.9858 0.677712 2.94395C0.553198 2.9021 0.43817 2.83608 0.339225 2.74968C0.240281 2.66327 0.159367 2.55819 0.101125 2.44045C0.0428819 2.32271 0.00845602 2.19462 -0.00017853 2.06355V2.06455Z" fill="none"/>
</svg>
