<svg width="25" height="25" viewBox="0 0 25 25" fill="none" xmlns="http://www.w3.org/2000/svg">
<path d="M19.5312 3.90625H19.3984V5.46875H19.5312C19.7385 5.46875 19.9372 5.55106 20.0837 5.69757C20.2302 5.84409 20.3125 6.0428 20.3125 6.25V21.875C20.3125 22.0822 20.2302 22.2809 20.0837 22.4274C19.9372 22.5739 19.7385 22.6562 19.5312 22.6562H5.46875C5.26155 22.6562 5.06284 22.5739 4.91632 22.4274C4.76981 22.2809 4.6875 22.0822 4.6875 21.875V6.25C4.6875 6.0428 4.76981 5.84409 4.91632 5.69757C5.06284 5.55106 5.26155 5.46875 5.46875 5.46875H5.60156V3.90625H5.46875C4.84715 3.90625 4.25101 4.15318 3.81147 4.59272C3.37193 5.03226 3.125 5.6284 3.125 6.25V21.875C3.125 22.4966 3.37193 23.0927 3.81147 23.5323C4.25101 23.9718 4.84715 24.2188 5.46875 24.2188H19.5312C20.1529 24.2187 20.749 23.9718 21.1885 23.5323C21.6281 23.0927 21.875 22.4966 21.875 21.875V6.25C21.875 5.6284 21.6281 5.03226 21.1885 4.59272C20.749 4.15318 20.1529 3.90625 19.5312 3.90625Z" fill="none"/>
<path d="M17.9688 2.34375H15.625V0H9.375V2.34375H7.03125V7.03125H17.9688V2.34375ZM16.4062 5.46875H8.59375V3.90625H10.9375V1.5625H14.0625V3.90625H16.4062V5.46875Z" fill="none"/>
<path d="M7.8125 10.1562H17.1875V11.7188H7.8125V10.1562ZM7.8125 14.0625H17.1875V15.625H7.8125V14.0625ZM7.8125 17.9688H17.1875V19.5312H7.8125V17.9688Z" fill="none"/>
</svg>
