<svg width="20" height="21" viewBox="0 0 20 21" fill="none" xmlns="http://www.w3.org/2000/svg">
<path d="M18.75 2.5C18.75 3.16304 18.4866 3.79893 18.0178 4.26777C17.5489 4.73661 16.913 5 16.25 5C15.587 5 14.9511 4.73661 14.4822 4.26777C14.0134 3.79893 13.75 3.16304 13.75 2.5C13.75 1.83696 14.0134 1.20107 14.4822 0.732233C14.9511 0.263392 15.587 0 16.25 0C16.913 0 17.5489 0.263392 18.0178 0.732233C18.4866 1.20107 18.75 1.83696 18.75 2.5Z" fill="none"/>
<path fill-rule="evenodd" clip-rule="evenodd" d="M7.802 3.93C8.04053 3.89379 8.28186 3.8794 8.523 3.887C8.603 3.891 8.693 3.897 8.796 3.907C11.179 4.155 12.946 5.943 14.124 7.709L14.187 7.803C14.4838 8.24812 14.8859 8.61308 15.3576 8.8655C15.8293 9.11792 16.356 9.25 16.891 9.25H18.75C18.9489 9.25 19.1397 9.32902 19.2803 9.46967C19.421 9.61032 19.5 9.80109 19.5 10C19.5 10.1989 19.421 10.3897 19.2803 10.5303C19.1397 10.671 18.9489 10.75 18.75 10.75H16.89C16.1081 10.75 15.3382 10.5569 14.6488 10.188C13.9594 9.81902 13.3718 9.28558 12.938 8.635L12.876 8.541C12.6097 8.13845 12.317 7.75394 12 7.39L10.116 9.745C9.688 10.279 9.402 10.639 9.209 10.935C9.021 11.221 8.968 11.38 8.954 11.501C8.93 11.701 8.956 11.904 9.027 12.092C9.071 12.206 9.162 12.348 9.413 12.579C9.673 12.819 10.039 13.097 10.585 13.509L10.68 13.582C11.4 14.128 11.9 14.506 12.245 15.01C12.442 15.297 12.597 15.61 12.708 15.94C12.901 16.52 12.901 17.146 12.901 18.05V20C12.901 20.1989 12.822 20.3897 12.6813 20.5303C12.5407 20.671 12.3499 20.75 12.151 20.75C11.9521 20.75 11.7613 20.671 11.6207 20.5303C11.48 20.3897 11.401 20.1989 11.401 20V18.17C11.401 17.1 11.391 16.735 11.285 16.415C11.219 16.2171 11.1258 16.0293 11.008 15.857C10.818 15.579 10.532 15.352 9.678 14.705L9.65 14.684C9.14 14.298 8.717 13.977 8.398 13.683C8.064 13.376 7.787 13.048 7.626 12.627C7.46807 12.213 7.41249 11.7671 7.464 11.327C7.516 10.879 7.705 10.492 7.954 10.113C8.191 9.751 8.523 9.335 8.922 8.836L10.906 6.357C10.219 5.834 9.462 5.486 8.642 5.401C8.58082 5.39454 8.51946 5.38987 8.458 5.387C8.3074 5.38349 8.1568 5.39353 8.008 5.417C6.943 5.565 5.876 6.157 3.558 7.474L2.122 8.289C1.94908 8.38739 1.74415 8.41307 1.5523 8.36037C1.36045 8.30767 1.1974 8.18092 1.099 8.008C1.0006 7.83508 0.974932 7.63015 1.02763 7.4383C1.08033 7.24645 1.20708 7.08339 1.38 6.985L2.816 6.17L2.968 6.083C5.088 4.879 6.417 4.123 7.803 3.932M7.23 14.425C7.38271 14.5523 7.47861 14.7351 7.49662 14.9331C7.51462 15.1311 7.45325 15.3282 7.326 15.481L6.326 16.682L6.229 16.798C5.587 17.569 5.116 18.136 4.458 18.444C3.8 18.752 3.063 18.752 2.058 18.751H0.75C0.551088 18.751 0.360322 18.672 0.21967 18.5313C0.0790175 18.3907 0 18.1999 0 18.001C0 17.8021 0.0790175 17.6113 0.21967 17.4707C0.360322 17.33 0.551088 17.251 0.75 17.251H1.908C3.13 17.251 3.504 17.234 3.821 17.086C4.139 16.937 4.391 16.66 5.173 15.722L6.173 14.521C6.23606 14.4452 6.31344 14.3827 6.40071 14.3368C6.48798 14.291 6.58343 14.2628 6.6816 14.2539C6.77977 14.245 6.87873 14.2555 6.97283 14.2849C7.06693 14.3142 7.15432 14.3618 7.23 14.425Z" fill="none"/>
</svg>
