<svg width="16" height="16" viewBox="0 0 16 16" fill="none" xmlns="http://www.w3.org/2000/svg">
<path fill-rule="evenodd" clip-rule="evenodd" d="M9.19379 2.03837C8.34935 1.48449 7.35681 1.18934 6.34175 1.19025C4.98358 1.19752 3.68321 1.73161 2.72326 2.67643C1.76331 3.62126 1.22136 4.90046 1.21521 6.23603C1.21521 7.23418 1.51627 8.20991 2.0803 9.03979C2.64434 9.86966 3.446 10.5164 4.38389 10.8982C5.32177 11.2799 6.35373 11.3796 7.34922 11.1845C8.34471 10.9894 9.259 10.5084 9.97643 9.8023C10.6939 9.09617 11.1822 8.19667 11.3796 7.21758C11.5771 6.23849 11.4748 5.22381 11.0857 4.3019C10.6966 3.37998 10.0382 2.59226 9.19379 2.03837ZM2.95729 1.25517C3.95909 0.596937 5.1369 0.245605 6.34175 0.245605C7.95742 0.245605 9.50691 0.876737 10.6494 2.00016C11.7918 3.12358 12.4336 4.64727 12.4336 6.23603C12.4336 7.42082 12.0763 8.579 11.407 9.56412C10.7376 10.5492 9.78616 11.3171 8.67301 11.7705C7.55987 12.2239 6.335 12.3425 5.15329 12.1113C3.97158 11.8802 2.88611 11.3097 2.03415 10.4719C1.18219 9.63412 0.601991 8.56673 0.366934 7.4047C0.131878 6.24267 0.252518 5.0382 0.713597 3.94359C1.17468 2.84898 1.95549 1.91341 2.95729 1.25517ZM12.1603 11.5491L15.6139 14.9682C15.6573 15.0112 15.6917 15.0621 15.715 15.1182C15.7384 15.1742 15.7503 15.2342 15.7501 15.2947C15.7499 15.3553 15.7375 15.4152 15.7138 15.471C15.69 15.5269 15.6553 15.5776 15.6116 15.6203C15.5679 15.6629 15.5161 15.6967 15.4591 15.7197C15.4022 15.7426 15.3411 15.7544 15.2796 15.7541C15.218 15.7539 15.1571 15.7418 15.1003 15.7184C15.0435 15.6951 14.9919 15.6609 14.9485 15.618L11.4949 12.1988L12.1603 11.5491Z" fill="#151515"/>
</svg>
