<svg width="32" height="32" viewBox="0 0 32 32" fill="none" xmlns="http://www.w3.org/2000/svg">
<path d="M13.3332 24.0003C15.6998 23.9998 17.9982 23.2076 19.8625 21.7497L25.7238 27.611L27.6092 25.7257L21.7478 19.8643C23.2065 17.9999 23.9993 15.7009 23.9998 13.3337C23.9998 7.45233 19.2145 2.66699 13.3332 2.66699C7.45184 2.66699 2.6665 7.45233 2.6665 13.3337C2.6665 19.215 7.45184 24.0003 13.3332 24.0003ZM13.3332 5.33366C17.7452 5.33366 21.3332 8.92166 21.3332 13.3337C21.3332 17.7457 17.7452 21.3337 13.3332 21.3337C8.92117 21.3337 5.33317 17.7457 5.33317 13.3337C5.33317 8.92166 8.92117 5.33366 13.3332 5.33366Z" fill="#202020"/>
<path d="M15.2161 11.4481C15.7214 11.9548 16.0001 12.6241 16.0001 13.3334H18.6668C18.6679 12.6327 18.5302 11.9386 18.2615 11.2914C17.9929 10.6442 17.5986 10.0567 17.1014 9.56278C15.0828 7.54678 11.5828 7.54678 9.56543 9.56278L11.4481 11.4508C12.4614 10.4401 14.2081 10.4428 15.2161 11.4481Z" fill="#202020"/>
</svg>
