<svg width="437" height="438" viewBox="0 0 437 438" fill="none" xmlns="http://www.w3.org/2000/svg">
<path d="M286.146 231.959L190.662 327.443C187.171 330.78 182.533 332.651 177.703 332.672C174.097 332.666 170.573 331.588 167.581 329.575C164.589 327.562 162.263 324.704 160.898 321.366C159.534 318.028 159.192 314.359 159.918 310.826C160.643 307.294 162.402 304.056 164.972 301.526L229.31 237.188H18.5625C13.7389 237.188 9.11281 235.271 5.70199 231.861C2.29118 228.45 0.375 223.824 0.375 219C0.375 214.176 2.29118 209.55 5.70199 206.139C9.11281 202.729 13.7389 200.812 18.5625 200.812H229.31L164.972 136.474C161.535 133.068 159.592 128.435 159.571 123.596C159.55 118.757 161.452 114.108 164.858 110.671C168.265 107.234 172.897 105.291 177.736 105.27C182.576 105.248 187.225 107.15 190.662 110.557L286.146 206.041C289.561 209.49 291.477 214.147 291.477 219C291.477 223.853 289.561 228.51 286.146 231.959V231.959ZM400.5 0.75H273.188C268.364 0.75 263.738 2.66618 260.327 6.077C256.916 9.48782 255 14.1139 255 18.9375C255 23.7611 256.916 28.3872 260.327 31.798C263.738 35.2088 268.364 37.125 273.188 37.125H400.5V400.875H273.188C268.364 400.875 263.738 402.791 260.327 406.202C256.916 409.613 255 414.239 255 419.062C255 423.886 256.916 428.512 260.327 431.923C263.738 435.334 268.364 437.25 273.188 437.25H400.5C410.147 437.25 419.399 433.418 426.221 426.596C433.043 419.774 436.875 410.522 436.875 400.875V37.125C436.875 27.4777 433.043 18.2256 426.221 11.404C419.399 4.58235 410.147 0.75 400.5 0.75V0.75Z" fill="black"/>
</svg>
