<svg width="438" height="438" viewBox="0 0 438 438" fill="none" xmlns="http://www.w3.org/2000/svg">
<path d="M432.021 231.959L336.537 327.443C333.046 330.78 328.408 332.651 323.578 332.672C319.972 332.666 316.449 331.588 313.456 329.575C310.464 327.562 308.138 324.704 306.773 321.366C305.409 318.028 305.067 314.359 305.793 310.826C306.518 307.294 308.277 304.056 310.847 301.526L375.185 237.188H164.438C159.614 237.188 154.988 235.271 151.577 231.861C148.166 228.45 146.25 223.824 146.25 219C146.25 214.176 148.166 209.55 151.577 206.139C154.988 202.729 159.614 200.812 164.438 200.812H375.185L310.847 136.474C307.41 133.068 305.467 128.435 305.446 123.596C305.425 118.757 307.327 114.108 310.733 110.671C314.14 107.234 318.772 105.291 323.611 105.27C328.451 105.248 333.1 107.15 336.537 110.557L432.021 206.041C435.436 209.49 437.352 214.147 437.352 219C437.352 223.853 435.436 228.51 432.021 231.959V231.959ZM164.438 400.875H37.125V37.125H164.438C169.261 37.125 173.887 35.2088 177.298 31.798C180.709 28.3872 182.625 23.7611 182.625 18.9375C182.625 14.1139 180.709 9.48782 177.298 6.077C173.887 2.66618 169.261 0.75 164.438 0.75H37.125C27.4777 0.75 18.2256 4.58235 11.404 11.404C4.58235 18.2256 0.75 27.4777 0.75 37.125V400.875C0.75 410.522 4.58235 419.774 11.404 426.596C18.2256 433.418 27.4777 437.25 37.125 437.25H164.438C169.261 437.25 173.887 435.334 177.298 431.923C180.709 428.512 182.625 423.886 182.625 419.062C182.625 414.239 180.709 409.613 177.298 406.202C173.887 402.791 169.261 400.875 164.438 400.875Z" fill="black"/>
</svg>
