<svg width="55" height="55" viewBox="0 0 55 55" fill="none" xmlns="http://www.w3.org/2000/svg">
<path d="M27.5 46.75C30.5376 46.75 33 44.2876 33 41.25C33 38.2124 30.5376 35.75 27.5 35.75C24.4624 35.75 22 38.2124 22 41.25C22 44.2876 24.4624 46.75 27.5 46.75Z" fill="none"/>
<path d="M27.5 33C30.5376 33 33 30.5376 33 27.5C33 24.4624 30.5376 22 27.5 22C24.4624 22 22 24.4624 22 27.5C22 30.5376 24.4624 33 27.5 33Z" fill="none"/>
<path d="M27.5 19.25C30.5376 19.25 33 16.7876 33 13.75C33 10.7124 30.5376 8.25 27.5 8.25C24.4624 8.25 22 10.7124 22 13.75C22 16.7876 24.4624 19.25 27.5 19.25Z" fill="none"/>
</svg>
