<svg width="126" height="41" viewBox="0 0 126 41" fill="none" xmlns="http://www.w3.org/2000/svg">
<g clip-path="url(#clip0_485_7)">
<path d="M65.1641 13.0547C65.0923 18.7434 70.2155 21.9176 74.0747 23.8051C78.0398 25.7415 79.3716 26.9834 79.3559 28.7153C79.3264 31.3654 76.1931 32.5352 73.2611 32.5806C68.1458 32.6601 65.1715 31.1945 62.8071 30.086L60.9643 38.74C63.3367 39.8371 67.7294 40.7939 72.2846 40.8359C82.9774 40.8359 89.9729 35.5385 90.0108 27.3252C90.0526 16.9013 75.6448 16.3244 75.7432 11.6652C75.7772 10.2524 77.1204 8.7448 80.0637 8.36147C81.5205 8.16783 85.5422 8.01964 90.1018 10.1269L91.8914 1.75405C89.4393 0.857977 86.2879 -6.0001e-05 82.3641 -6.0001e-05C72.2999 -6.0001e-05 65.2212 5.36946 65.1641 13.0547ZM109.087 0.721144C107.135 0.721144 105.49 1.8642 104.755 3.61831L89.4812 40.2209H100.166L102.292 34.3234H115.349L116.582 40.2209H126L117.782 0.721144H109.087ZM110.582 11.3915L113.666 26.2241H105.221L110.582 11.3915ZM52.2093 0.721638L43.787 40.2204H53.9689L62.3872 0.720651H52.2093M37.1469 0.720651L26.5491 27.6063L22.2621 4.74655C21.7591 2.19468 19.7726 0.721144 17.5667 0.721144H0.242648L0 1.86816C3.55655 2.64271 7.59741 3.89198 10.0455 5.22867C11.5438 6.04522 11.971 6.75901 12.4632 8.69935L20.5828 40.2209H31.3425L47.8387 0.721144L37.1469 0.720651Z" fill="url(#paint0_linear_485_7)"/>
</g>
<defs>
<linearGradient id="paint0_linear_485_7" x1="5792.72" y1="122.753" x2="5911.36" y2="-4071.14" gradientUnits="userSpaceOnUse">
<stop stop-color="#222357"/>
<stop offset="1" stop-color="#254AA5"/>
</linearGradient>
<clipPath id="clip0_485_7">
<rect width="126" height="41" fill="white"/>
</clipPath>
</defs>
</svg>
